# xmcd
#
# Track frame offsets:
#	150
#	14900
#	31177
#	46322
#	62207
#	90177
#	102375
#	116282
#	132157
#	148655
#	163625
#	178030
#	194190
#	208367
#	219895
#
# Disc length: 3121 seconds
#
# Revision: 1
# Processed by: cddbd v1.5.2PL0 Copyright (c) Steve Scherf et al.
# Submitted via: audiograbber 1.83.01
#
DISCID=dc0c2f0f
DTITLE=Diversen - Truckers Jukebox CD-3
DYEAR=1997
DGENRE=Country
TTITLE0=Steve Wariner - Life's highway
TTITLE1=Barbara Mandrell - Fast Lanes and country roads
TTITLE2=John Schneider - You're the last thing I needed tonight
TTITLE3=Mac Davis - Sexy young girl
TTITLE4=Ray Stevens - The haircut song
TTITLE5=Waylon Jennings - Working without a net
TTITLE6=Lee Greenwood - Don'tunderestimate my love for you
TTITLE7=Oak Ride Boys - Juliet
TTITLE8=Reba McEntire - Only in my mind
TTITLE9=George Strait - You're something special for me
TTITLE10=John Schneider - Country girls
TTITLE11=Atlanta - Sweet country music
TTITLE12=Steve Wariner - What I didn't do
TTITLE13=Barbara Mandrell - Happy birthday dear heartache
TTITLE14=Lee Greenwood - God bless the USA
EXTD=
EXTT0=
EXTT1=
EXTT2=
EXTT3=
EXTT4=
EXTT5=
EXTT6=
EXTT7=
EXTT8=
EXTT9=
EXTT10=
EXTT11=
EXTT12=
EXTT13=
EXTT14=
PLAYORDER=
